<?xml version="1.0" encoding="utf-8"?>
<!-- Generator: Adobe Illustrator 24.1.2, SVG Export Plug-In . SVG Version: 6.00 Build 0)  -->
<svg version="1.1" id="Layer_1" xmlns="http://www.w3.org/2000/svg" xmlns:xlink="http://www.w3.org/1999/xlink" x="0px" y="0px"
	 viewBox="0 0 180 180" style="enable-background:new 0 0 180 180;" xml:space="preserve">
<style type="text/css">
	.st0{fill:url(#SVGID_1_);}
	.st1{fill:#15202C;}
	.st2{fill:url(#SVGID_2_);}
	.st3{opacity:0.15;}
	.st4{opacity:0.15;fill:#FFFFFF;}
</style>
<g>
	<linearGradient id="SVGID_1_" gradientUnits="userSpaceOnUse" x1="120.5644836" y1="129.0835419" x2="60.5451736" y2="49.4352341">
		<stop  offset="0" style="stop-color:#F15A29"/>
		<stop  offset="0.5335196" style="stop-color:#F26326"/>
		<stop  offset="1" style="stop-color:#F7941D"/>
	</linearGradient>
	<path class="st0" d="M156.6667938,69.6317749h-49.1571274c-2.7853317,0-4.9761505-2.3799667-4.7460175-5.155777
		l3.2645798-39.3767242c0.3664627-4.4202175-4.9771881-6.8972225-8.1134796-3.7609348L19.9671192,99.2859497
		c-3.0000839,3.0000839-0.8753033,8.1297684,3.3674564,8.1297684h46.4288139c2.6922302,0,4.849205,2.22995,4.7596664,4.9206848
		l-1.4242783,42.801506c-0.1446762,4.3476715,5.1356049,6.5974426,8.1709824,3.4814148l78.8083496-80.9022217
		C163.0176392,74.6994629,160.8795166,69.6317749,156.6667938,69.6317749z"/>
	<path class="st1" d="M164.7191925,70.9966354c-1.3692474-3.2453384-4.530014-5.3423462-8.0523987-5.3423462h-49.1571426
		c-0.284523,0-0.4710541-0.1377563-0.5774307-0.253273c-0.1063309-0.1156006-0.228241-0.3128586-0.2047119-0.5964508
		l3.2645798-39.3766785c0.2050247-2.4731636-0.5914688-4.8233109-2.2428513-6.617527
		c-1.6709747-1.8154888-4.0422211-2.8569536-6.5056763-2.8573074c-2.3009338-0.000309-4.4819794,0.9133739-6.1413498,2.5728302
		L17.1546574,96.4734802c-2.5084753,2.5083847-3.2521763,6.2470245-1.8945866,9.5244904
		c1.3575459,3.2774658,4.5270061,5.3952255,8.0745182,5.3952255h46.4288025c0.275032,0,0.4585648,0.1300507,0.5641022,0.2391663
		c0.1055756,0.1091156,0.2294312,0.2969055,0.2202988,0.5717545l-1.4242859,42.8015137
		c-0.0798035,2.3978119,0.7793198,4.6519165,2.4190063,6.3470612c1.6562347,1.7122192,3.972084,2.6942596,6.3537903,2.6942596
		c2.3466187,0,4.5564957-0.9419098,6.2225723-2.6521912l78.8083115-80.9022827
		C165.3850708,77.9693527,166.0884705,74.242012,164.7191925,70.9966354z M160.0780792,77.7170944l-78.8083038,80.9022293
		c-0.9772873,1.0032349-2.1867905,1.4501495-3.3734741,1.4501495c-2.4991608,0-4.895607-1.9836578-4.7975311-4.9315643
		l1.4242859-42.801506c0.0895538-2.6907425-2.0674362-4.9206848-4.7596664-4.9206848H23.334589
		c-4.242794,0-6.3675671-5.1296768-3.3674679-8.129776l77.9476318-77.9475937
		c0.9754791-0.9755211,2.163887-1.4079533,3.3282318-1.4078217c2.5791016,0.0003529,5.0376968,2.1233616,4.7852173,5.1687469
		l-3.2645798,39.3767166c-0.2300949,2.7758331,1.9607086,5.1557693,4.7460251,5.1557693h49.1571426
		C160.8795166,69.6317596,163.0176239,74.6994705,160.0780792,77.7170944z"/>
	<linearGradient id="SVGID_2_" gradientUnits="userSpaceOnUse" x1="115.0828781" y1="91.2048721" x2="66.9442596" y2="152.8194885">
		<stop  offset="0" style="stop-color:#FFE8D6"/>
		<stop  offset="1" style="stop-color:#F1F2F2"/>
	</linearGradient>
	<path class="st2" d="M100.7573929,85.4050522l-26.2343597,26.9313431l-1.4242859,42.8019409
		c-0.1442947,4.3474121,5.1357269,6.5969238,8.1710052,3.4809723l26.2343597-26.9313354l1.4242859-42.8019485
		C109.0726852,84.53862,103.7926636,82.2891159,100.7573929,85.4050522z"/>
	<path class="st3" d="M156.6668091,69.6317749L156.6668091,69.6317749l-82.9687119,67.4957428l-0.59935,18.0104065
		c-0.1446457,4.3476715,5.135643,6.5974274,8.1710052,3.4813843l78.8083572-80.9021988
		C163.0176392,74.6994629,160.8795471,69.6317749,156.6668091,69.6317749z"/>
	<path class="st4" d="M106.0282288,25.0992832c0.3664856-4.4202328-4.9771805-6.8972378-8.1134491-3.7609482L19.9671421,99.2859497
		c-3.0000992,3.0000763-0.8753262,8.1297607,3.367424,8.1297607l0,0l81.1558456-63.7676163L106.0282288,25.0992832z"/>
</g>
</svg>
